<?xml version="1.0" standalone="no"?>
<!DOCTYPE svg PUBLIC "-//W3C//DTD SVG 20010904//EN"
 "http://www.w3.org/TR/2001/REC-SVG-20010904/DTD/svg10.dtd">
<svg version="1.0" xmlns="http://www.w3.org/2000/svg"
 width="1960.000000pt" height="1960.000000pt" viewBox="0 0 1960.000000 1960.000000"
 preserveAspectRatio="xMidYMid meet">

<g transform="translate(0.000000,1960.000000) scale(0.100000,-0.100000)"
fill="#000000" stroke="none">
<path d="M9715 13560 c-22 -5 -74 -14 -115 -20 -82 -13 -101 -16 -437 -60 -43
-6 -112 -14 -153 -19 -41 -5 -82 -11 -90 -15 -8 -3 -55 -11 -105 -17 -89 -11
-152 -19 -290 -38 -38 -6 -106 -14 -150 -20 -44 -5 -127 -17 -185 -26 -112
-18 -197 -30 -325 -46 -87 -11 -162 -21 -295 -38 -47 -6 -92 -14 -102 -17 -15
-4 -46 -9 -253 -35 -44 -6 -107 -14 -140 -19 -33 -5 -98 -13 -145 -18 -47 -6
-92 -13 -100 -16 -8 -3 -55 -11 -105 -17 -49 -6 -117 -15 -150 -20 -77 -10
-211 -28 -295 -39 -36 -4 -112 -15 -170 -24 -120 -18 -220 -32 -335 -47 -44
-6 -107 -14 -140 -19 -33 -4 -98 -13 -145 -18 -47 -6 -92 -13 -100 -16 -8 -3
-55 -11 -105 -17 -49 -6 -119 -15 -155 -20 -36 -5 -96 -13 -135 -18 -38 -5
-107 -14 -152 -20 -46 -5 -91 -12 -100 -15 -20 -6 -168 -27 -398 -56 -132 -17
-214 -28 -325 -45 -136 -21 -275 -40 -465 -64 -138 -17 -229 -30 -255 -37 -23
-5 -53 -9 -255 -35 -44 -6 -109 -14 -145 -19 -36 -5 -102 -13 -147 -19 -46 -5
-92 -12 -102 -16 -11 -3 -54 -10 -98 -16 -75 -9 -133 -17 -298 -39 -41 -5
-108 -14 -148 -20 -39 -5 -117 -16 -172 -25 -55 -8 -136 -20 -180 -26 -44 -6
-109 -14 -145 -19 -36 -5 -101 -13 -145 -19 -138 -17 -229 -30 -255 -37 -23
-5 -60 -10 -255 -35 -44 -6 -107 -14 -140 -19 -33 -4 -98 -13 -145 -18 -47 -6
-92 -13 -100 -16 -8 -3 -55 -11 -105 -17 -49 -6 -117 -15 -150 -20 -33 -4 -96
-13 -140 -18 -44 -6 -100 -14 -125 -18 -51 -9 -47 4 -34 -137 l7 -68 51 7 c76
11 161 23 251 34 44 6 114 15 155 20 41 6 110 15 153 20 44 6 87 13 98 16 10
4 56 11 102 16 77 10 142 18 297 39 36 5 102 13 147 19 46 5 92 12 102 16 11
3 54 10 98 16 43 5 112 14 153 20 41 5 109 14 150 19 154 21 218 29 320 45 58
9 138 20 177 25 40 6 108 15 150 21 43 6 107 14 143 19 189 24 236 31 252 36
9 2 51 9 95 15 43 5 112 14 153 20 84 11 176 23 295 37 44 6 87 13 95 16 8 3
53 10 100 16 91 12 193 25 305 40 39 5 104 14 145 19 41 6 120 17 175 26 55 8
136 20 180 26 44 6 109 14 145 19 65 9 137 18 300 39 47 6 92 14 102 17 9 2
51 9 95 15 43 5 110 14 148 19 66 9 109 15 298 39 44 6 86 13 95 15 16 5 47
10 252 36 36 5 101 14 145 19 44 6 112 15 150 20 39 5 117 17 175 26 58 9 139
21 180 26 41 5 107 14 145 19 39 5 104 14 145 19 41 5 122 17 180 26 58 8 138
20 178 25 39 6 107 15 150 21 120 16 200 27 292 37 47 6 92 13 100 16 16 6
100 18 405 57 123 16 191 25 310 43 61 10 143 21 183 27 39 5 107 14 150 20
42 6 106 14 142 18 118 15 235 32 252 37 9 3 51 9 95 15 43 5 114 14 158 20
44 6 109 14 145 19 36 5 101 13 145 19 44 5 104 14 133 20 36 7 68 7 105 0 28
-6 84 -15 122 -20 102 -13 221 -29 290 -39 33 -5 94 -13 135 -19 41 -5 120
-17 175 -26 55 -9 134 -21 175 -26 41 -6 102 -14 135 -19 33 -5 94 -13 135
-19 41 -5 120 -17 175 -26 55 -10 129 -21 165 -25 36 -5 101 -14 145 -20 44
-6 107 -15 140 -19 189 -26 231 -32 245 -37 8 -3 49 -10 90 -15 70 -9 126 -17
290 -39 36 -5 100 -14 143 -19 44 -6 86 -13 96 -16 9 -3 50 -10 91 -15 119
-17 220 -31 290 -40 112 -14 212 -29 310 -45 91 -15 171 -27 310 -45 74 -10
180 -24 290 -40 41 -5 82 -12 91 -15 10 -3 52 -10 96 -16 108 -14 217 -29 288
-40 33 -5 96 -13 140 -18 44 -5 87 -12 95 -15 14 -5 55 -11 245 -37 33 -4 96
-13 140 -19 44 -6 107 -15 140 -19 189 -26 231 -32 245 -37 8 -3 51 -10 95
-16 78 -9 141 -18 275 -37 36 -5 105 -14 154 -20 49 -6 93 -14 98 -17 4 -3 45
-10 91 -15 84 -11 174 -22 287 -38 36 -5 99 -14 140 -19 42 -6 87 -13 100 -16
14 -4 59 -11 100 -17 41 -5 109 -15 150 -20 41 -6 102 -14 135 -19 33 -5 94
-13 135 -19 41 -5 120 -17 175 -26 55 -10 129 -21 165 -25 36 -5 101 -14 145
-20 44 -6 107 -15 140 -19 189 -26 231 -32 245 -37 8 -3 51 -10 95 -16 44 -5
109 -14 145 -19 36 -5 97 -13 135 -18 188 -25 221 -30 235 -35 8 -3 53 -11
100 -17 47 -6 112 -15 145 -19 64 -9 176 -24 290 -39 39 -5 113 -17 165 -26
52 -9 127 -20 165 -26 39 -5 86 -12 107 -15 l36 -6 12 55 c6 30 12 74 13 98 2
42 1 43 -34 50 -45 10 -223 39 -304 50 -75 10 -189 25 -280 38 -38 6 -104 15
-145 20 -41 6 -86 13 -100 17 -22 5 -53 9 -245 35 -38 5 -99 13 -135 18 -36 5
-100 14 -143 20 -44 6 -87 13 -97 16 -10 3 -53 10 -97 16 -43 6 -109 15 -148
20 -38 5 -99 13 -135 18 -36 5 -99 14 -140 20 -41 5 -120 17 -175 26 -55 9
-134 21 -175 26 -115 16 -198 27 -275 38 -38 6 -106 15 -150 21 -44 6 -87 13
-95 16 -8 3 -51 10 -95 16 -44 5 -107 13 -140 18 -103 15 -207 29 -288 39 -44
6 -87 13 -97 16 -10 3 -53 10 -97 16 -43 6 -108 15 -145 20 -38 5 -98 13 -135
18 -38 5 -103 14 -147 20 -43 6 -84 16 -92 22 -12 10 -14 67 -12 338 l3 326
40 3 c22 1 55 5 73 8 32 5 32 5 32 64 0 54 -2 60 -22 65 -13 3 -333 4 -713 3
l-690 -3 -1 -50 c-2 -86 -3 -85 86 -85 62 0 79 -3 84 -16 3 -9 6 -123 6 -255
l0 -239 -34 0 c-19 0 -56 4 -83 10 -26 5 -95 16 -153 25 -58 8 -134 20 -170
25 -36 5 -83 12 -105 15 -39 5 -111 15 -250 34 -38 6 -115 17 -170 26 -94 15
-150 23 -320 46 -294 40 -359 49 -375 55 -8 3 -51 10 -95 15 -74 9 -137 17
-290 39 -33 5 -98 13 -144 19 -46 6 -87 13 -91 16 -4 2 -47 10 -96 16 -233 30
-401 54 -599 84 -55 9 -134 21 -175 26 -41 6 -102 14 -135 19 -66 9 -167 23
-290 40 -44 6 -87 13 -95 16 -8 3 -51 10 -95 15 -87 11 -171 23 -280 38 -38 6
-105 15 -148 20 -44 6 -87 13 -97 16 -10 3 -51 10 -92 15 -40 5 -83 12 -95 15
-18 6 -25 0 -41 -32 l-20 -38 -7 38 c-8 40 -10 41 -80 27z m5603 -446 c2 -246
0 -313 -10 -321 -14 -12 -68 -7 -378 36 -187 25 -225 31 -259 41 -20 5 -54 10
-76 10 -22 0 -56 5 -76 10 l-37 10 -6 138 c-3 75 -9 194 -12 265 l-5 127 428
-2 428 -3 3 -311z"/>
<path d="M756 11724 c-8 -20 -8 -3972 0 -4001 l6 -23 1189 0 1189 0 -2 333 -3
332 -838 3 -837 2 2 523 3 522 728 3 727 2 -2 323 -3 322 -716 3 c-580 2 -719
5 -728 15 -13 16 -17 985 -3 999 4 4 370 9 812 10 l805 3 0 320 0 320 -1161 3
c-1045 2 -1162 1 -1168 -14z"/>
<path d="M10916 11718 c-3 -13 -6 -76 -6 -140 0 -64 -4 -172 -10 -240 -5 -68
-15 -217 -21 -333 -24 -456 -47 -713 -84 -935 -9 -52 -20 -124 -26 -160 -6
-36 -15 -87 -19 -115 -5 -27 -12 -66 -15 -85 -8 -46 -39 -183 -66 -292 -33
-134 -48 -194 -59 -228 -5 -14 -20 -65 -35 -115 -15 -49 -31 -99 -35 -110 -5
-11 -25 -65 -45 -120 -20 -55 -45 -118 -55 -140 -42 -93 -115 -233 -146 -282
l-34 -53 -220 0 -220 0 2 -692 3 -693 305 -3 c168 -1 315 0 327 3 l23 5 2 353
3 352 1415 0 1415 0 5 -355 5 -355 320 0 320 0 0 690 0 690 -270 5 -270 5 -3
1683 -2 1682 -1249 0 -1249 0 -6 -22z m1802 -1990 l2 -1358 -840 0 c-564 0
-840 3 -840 10 0 6 12 29 26 52 71 112 124 244 234 584 6 17 10 40 10 52 0 11
4 23 9 26 5 3 11 23 14 43 2 21 13 72 24 113 11 41 25 102 32 135 7 33 16 74
22 91 5 17 9 41 9 54 0 12 4 39 9 59 37 143 72 402 101 736 5 66 17 190 25
275 9 85 20 205 25 265 5 61 12 136 16 168 l7 57 556 -2 556 -3 3 -1357z"/>
<path d="M14825 11611 c-156 -45 -248 -130 -290 -267 -29 -97 -12 -230 41
-321 99 -169 342 -240 524 -154 59 28 143 108 165 157 9 22 22 50 29 63 6 14
11 74 11 145 -1 110 -3 126 -27 176 -46 95 -149 176 -261 206 -67 18 -118 17
-192 -5z"/>
<path d="M7915 10354 c-53 -7 -149 -25 -187 -35 -123 -30 -120 -29 -213 -70
-99 -42 -121 -53 -173 -86 -29 -18 -56 -33 -61 -33 -5 0 -11 -4 -13 -8 -1 -5
-23 -22 -48 -39 -89 -62 -219 -200 -286 -304 -61 -94 -134 -235 -134 -259 0
-11 -4 -22 -10 -25 -5 -3 -10 -16 -10 -29 0 -12 -4 -26 -8 -31 -8 -9 -18 -50
-51 -213 -14 -69 -14 -375 0 -444 22 -110 50 -220 69 -273 18 -49 107 -225
139 -275 111 -170 325 -355 516 -444 108 -51 238 -92 385 -122 119 -24 459
-24 580 0 370 75 626 222 848 490 53 64 123 186 166 291 10 22 21 48 26 57 6
10 10 27 10 37 0 11 4 22 9 25 5 3 11 20 14 38 3 18 11 58 17 88 22 109 29
187 29 315 0 128 -7 206 -29 315 -6 30 -14 70 -17 88 -3 18 -9 35 -14 38 -5 3
-9 14 -9 25 0 10 -4 27 -10 37 -5 9 -17 34 -26 55 -9 20 -20 37 -25 37 -19 0
-132 -128 -200 -225 -52 -75 -127 -206 -231 -405 -24 -47 -57 -104 -71 -127
-15 -24 -27 -45 -27 -47 0 -12 -117 -186 -165 -246 -66 -82 -160 -168 -212
-193 -13 -5 -23 -14 -23 -19 0 -4 -7 -8 -15 -8 -8 0 -23 -4 -33 -9 -123 -65
-373 -94 -538 -62 -174 34 -205 42 -289 68 -27 9 -74 25 -103 35 -52 19 -53
21 -46 51 6 30 25 80 45 119 5 10 9 27 9 37 0 11 5 23 11 27 6 3 7 9 2 13 -25
17 -75 150 -88 234 -3 20 -10 37 -14 37 -9 0 -81 -152 -81 -170 0 -6 -4 -18
-10 -28 -37 -65 -100 -375 -100 -495 -1 -34 -7 -75 -14 -92 -13 -30 -13 -29
-22 40 -13 104 -10 406 4 520 7 55 15 120 18 145 3 25 10 49 15 55 5 5 9 18 9
30 0 11 14 58 31 105 17 47 33 95 36 108 3 12 9 22 14 22 5 0 9 6 9 13 0 23
108 188 165 252 120 134 193 205 247 239 31 20 62 36 68 36 5 0 10 5 10 10 0
6 11 10 24 10 14 0 28 5 31 10 3 6 15 10 26 10 10 0 27 4 37 9 9 5 44 16 77
26 33 9 69 21 80 25 11 5 34 11 50 15 17 3 50 10 75 16 90 19 168 29 314 41
148 11 239 7 451 -22 33 -5 84 -12 113 -16 29 -3 55 -11 58 -15 3 -5 17 -9 32
-9 15 0 45 -7 67 -15 48 -17 75 -19 75 -4 0 23 -86 134 -168 217 -187 188
-408 300 -732 373 -53 11 -442 22 -505 13z"/>
<path d="M3895 10288 c-3 -7 -4 -591 -3 -1298 l3 -1285 325 0 325 0 0 1295 0
1295 -323 3 c-253 2 -324 0 -327 -10z"/>
<path d="M5453 10219 c-77 -107 -88 -122 -158 -220 -32 -46 -62 -86 -65 -89
-6 -4 -77 -103 -140 -193 -22 -32 -138 -190 -148 -202 -4 -5 -34 -46 -65 -90
-32 -44 -89 -123 -127 -175 -128 -173 -160 -221 -160 -237 0 -9 17 -37 37 -62
21 -25 43 -53 50 -61 6 -8 27 -34 45 -56 18 -23 74 -95 125 -160 199 -256 287
-369 293 -374 3 -3 19 -23 35 -45 16 -22 37 -49 46 -60 21 -24 99 -124 154
-195 22 -29 60 -78 85 -109 25 -32 59 -75 75 -96 17 -21 41 -51 53 -67 l24
-28 416 2 c268 2 417 7 419 13 2 6 -7 21 -19 35 -13 14 -41 48 -63 75 -21 28
-42 52 -45 55 -3 3 -24 28 -45 55 -22 28 -42 52 -45 55 -3 3 -77 93 -165 200
-88 107 -167 204 -176 215 -9 11 -45 54 -79 95 -34 41 -78 95 -99 120 -21 25
-93 113 -160 195 -67 83 -136 168 -154 189 -18 21 -36 45 -40 53 -6 10 33 65
130 184 76 94 149 186 163 203 14 18 42 53 62 77 20 24 67 83 105 130 109 138
187 234 192 239 4 3 24 28 46 55 54 67 50 63 170 210 58 71 105 133 105 137 0
4 -184 8 -409 8 l-410 0 -58 -81z"/>
<path d="M14595 10288 c-3 -7 -4 -591 -3 -1298 l3 -1285 325 0 325 0 0 1295 0
1295 -323 3 c-253 2 -324 0 -327 -10z"/>
<path d="M16105 10288 c-3 -7 -4 -591 -3 -1298 l3 -1285 323 -3 322 -2 0 784
c0 476 4 787 9 791 5 3 43 -34 83 -82 40 -49 75 -90 78 -93 3 -3 17 -21 32
-40 14 -19 34 -44 44 -55 11 -11 37 -43 59 -70 22 -28 47 -59 57 -70 9 -11 98
-121 199 -245 100 -124 189 -231 196 -238 7 -8 18 -22 23 -33 15 -27 42 -23
65 10 11 16 85 111 165 211 80 101 163 206 184 234 22 28 44 56 50 62 6 6 56
69 111 140 55 70 114 144 130 163 17 20 43 53 58 74 16 20 32 37 38 37 5 0 9
-298 9 -790 l0 -790 328 2 327 3 0 1295 0 1295 -290 0 -289 0 -143 -185 c-201
-259 -204 -263 -290 -376 -43 -55 -89 -116 -103 -134 -42 -56 -103 -135 -109
-140 -6 -5 -138 -177 -170 -221 -13 -19 -41 -26 -41 -11 0 6 -63 87 -138 177
-10 11 -35 43 -57 70 -22 28 -42 52 -45 55 -3 3 -24 28 -45 55 -22 28 -42 52
-46 55 -5 5 -107 130 -149 185 -14 17 -41 52 -62 76 -63 76 -197 241 -256 314
-31 39 -61 73 -66 77 -6 4 -141 8 -299 8 -221 0 -289 -3 -292 -12z"/>
<path d="M8667 9610 c-99 -8 -118 -17 -87 -45 22 -20 77 -23 109 -5 11 5 39
10 63 10 46 0 143 32 132 43 -8 8 -93 7 -217 -3z"/>
<path d="M8810 6701 c0 -85 70 -171 174 -215 51 -21 191 -22 237 0 108 49 144
89 178 193 19 60 18 61 -62 61 l-73 0 -11 -43 c-15 -53 -40 -82 -88 -103 -81
-33 -172 10 -204 96 l-16 45 -68 3 -67 3 0 -40z"/>
<path d="M5628 6275 c-208 -58 -344 -243 -341 -460 1 -77 19 -156 53 -230 28
-62 120 -153 185 -184 28 -13 57 -27 67 -32 9 -4 55 -13 102 -20 187 -26 367
39 466 171 69 90 94 169 93 300 0 142 -41 247 -129 335 -50 49 -148 106 -209
121 -56 13 -238 13 -287 -1z m279 -156 c64 -27 123 -86 155 -156 24 -54 28
-75 28 -150 0 -78 -4 -95 -31 -148 -46 -91 -88 -129 -179 -162 -40 -15 -182
-17 -208 -4 -9 5 -34 17 -55 27 -51 25 -113 93 -139 152 -26 61 -29 209 -4
262 42 92 79 134 151 173 74 39 198 42 282 6z"/>
<path d="M11588 6275 c-104 -29 -173 -76 -263 -178 -38 -42 -85 -200 -85 -282
0 -115 57 -255 137 -337 100 -102 278 -154 440 -128 179 28 303 129 374 305
22 54 30 159 18 234 -12 80 -62 196 -102 241 -58 65 -145 120 -227 143 -55 16
-238 17 -292 2z m293 -166 c100 -50 158 -143 166 -270 14 -205 -118 -349 -319
-349 -66 0 -89 5 -135 27 -68 34 -116 81 -150 147 -23 45 -27 63 -27 151 0 96
1 103 34 160 58 103 121 149 220 165 72 11 150 0 211 -31z"/>
<path d="M16240 6280 c-8 -5 -24 -10 -36 -10 -70 0 -223 -126 -265 -217 -30
-66 -59 -179 -59 -233 0 -45 23 -158 39 -195 5 -11 16 -35 24 -54 21 -47 119
-144 170 -168 73 -35 93 -41 176 -54 135 -21 271 8 384 80 36 23 48 53 27 66
-5 3 -10 15 -10 25 0 10 -7 25 -15 34 -14 14 -21 13 -68 -12 -83 -44 -117 -52
-221 -52 -84 0 -105 4 -152 26 -71 34 -129 94 -154 162 -35 94 -61 87 330 90
395 2 370 -4 370 97 0 199 -114 351 -311 414 -43 13 -208 14 -229 1z m257
-176 c67 -43 101 -94 105 -159 l3 -50 -270 0 -270 0 -3 27 c-4 30 17 76 57
126 79 100 266 128 378 56z"/>
<path d="M18335 6281 c-11 -5 -38 -14 -60 -21 -128 -41 -252 -193 -286 -351
-12 -57 -8 -151 9 -224 17 -73 58 -147 116 -205 78 -78 147 -111 274 -131 113
-17 252 6 327 55 40 26 95 78 95 89 0 13 -53 97 -61 97 -4 0 -34 -18 -67 -40
-33 -22 -67 -40 -75 -40 -9 0 -19 -4 -22 -10 -3 -5 -46 -10 -95 -10 -73 0
-100 5 -143 24 -73 32 -129 84 -163 153 -26 50 -29 66 -28 152 0 78 4 105 23
143 29 61 91 123 154 155 45 22 64 26 145 25 88 0 97 -2 172 -40 l80 -39 35
56 35 56 -32 27 c-35 29 -104 58 -181 77 -54 12 -222 14 -252 2z"/>
<path d="M6613 6273 l-103 -4 0 -454 0 -454 163 -3 c164 -3 318 4 372 17 123
29 200 104 206 201 6 110 2 122 -48 172 -29 29 -69 55 -101 67 l-53 20 45 20
c59 27 94 60 117 110 34 74 17 178 -37 226 -29 26 -92 59 -112 59 -10 0 -22 4
-28 10 -11 11 -269 19 -421 13z m341 -131 c130 -36 143 -183 23 -251 -33 -18
-54 -21 -172 -21 l-135 0 0 138 c0 76 3 142 7 146 11 10 231 1 277 -12z m-28
-373 c117 -20 164 -61 164 -142 0 -51 -33 -101 -79 -119 -46 -19 -174 -35
-236 -31 -115 8 -105 -6 -105 152 0 76 3 141 7 144 10 11 183 8 249 -4z"/>
<path d="M740 6260 c0 -5 33 -53 73 -107 40 -54 82 -110 93 -124 10 -14 47
-63 82 -109 l62 -83 -19 -31 c-18 -28 -147 -204 -273 -374 -27 -34 -48 -65
-48 -68 0 -2 42 -4 93 -4 l94 0 74 106 c41 58 83 119 94 134 112 156 155 221
155 232 0 16 -6 25 -150 227 -63 89 -122 173 -130 186 -14 24 -20 25 -107 25
-53 0 -93 -4 -93 -10z"/>
<path d="M1287 6263 c-4 -3 -7 -208 -7 -455 l0 -448 75 0 75 0 0 455 0 455
-68 0 c-38 0 -72 -3 -75 -7z"/>
<path d="M1783 6253 c-4 -10 -9 -20 -13 -23 -3 -3 -28 -36 -55 -75 -42 -60
-96 -134 -123 -170 -35 -47 -102 -145 -102 -150 0 -3 32 -51 71 -107 39 -55
80 -115 92 -132 12 -17 24 -33 27 -36 3 -3 37 -49 74 -102 l69 -98 95 0 94 0
-17 27 c-10 15 -87 119 -172 231 -84 112 -153 209 -153 215 0 7 70 104 155
217 85 113 154 208 155 213 0 4 -43 7 -95 7 -82 0 -97 -3 -102 -17z"/>
<path d="M2205 6258 c-3 -7 -4 -211 -3 -453 l3 -440 76 -3 77 -3 44 59 c25 32
52 67 61 78 9 10 91 116 182 234 218 281 235 301 246 295 5 -4 9 -142 9 -336
l0 -329 75 0 75 0 0 455 0 455 -78 0 -79 0 -34 -42 c-18 -24 -39 -50 -46 -58
-7 -8 -48 -62 -93 -120 -157 -205 -177 -231 -272 -351 -15 -19 -38 -49 -51
-66 -13 -18 -27 -30 -30 -26 -4 3 -7 154 -7 335 l0 328 -75 0 c-51 0 -77 -4
-80 -12z"/>
<path d="M3250 6195 l0 -75 151 0 c84 0 159 -5 170 -10 18 -10 19 -25 19 -380
l0 -370 75 0 75 0 0 374 c0 332 2 375 16 380 9 3 85 6 170 6 l154 0 0 75 0 75
-415 0 -415 0 0 -75z"/>
<path d="M4401 6182 c-6 -49 -11 -125 -11 -170 0 -197 -54 -393 -128 -465 -20
-19 -48 -37 -62 -39 -23 -3 -25 -7 -28 -64 -4 -79 11 -97 71 -87 63 10 104 30
142 70 90 95 141 281 161 590 6 82 9 92 28 97 28 8 255 7 284 0 l22 -6 0 -374
0 -374 80 0 80 0 0 455 0 455 -314 0 -313 0 -12 -88z"/>
<path d="M7515 6258 c-3 -7 -4 -211 -3 -453 l3 -440 77 -3 76 -3 48 63 c26 35
51 65 54 68 3 3 18 23 35 45 16 22 31 42 35 45 3 3 18 23 35 45 16 22 34 45
40 51 5 7 51 65 100 130 137 178 170 219 181 219 5 0 10 -134 12 -332 l2 -333
75 0 75 0 0 455 0 455 -79 0 -78 0 -94 -121 c-52 -67 -107 -138 -124 -159 -16
-21 -47 -60 -67 -86 -150 -196 -237 -302 -242 -297 -3 4 -6 154 -6 335 l0 328
-75 0 c-51 0 -77 -4 -80 -12z"/>
<path d="M8675 6258 c-3 -7 -4 -211 -3 -453 l3 -440 77 -3 77 -3 41 53 c23 29
47 60 53 68 7 9 25 33 41 55 17 22 32 42 36 45 3 3 19 23 35 45 16 22 35 47
42 55 7 8 58 74 113 145 148 191 161 206 171 199 5 -3 9 -149 9 -335 l0 -329
75 0 75 0 0 455 0 455 -79 0 -78 0 -92 -117 c-50 -65 -107 -138 -126 -163
-105 -137 -229 -296 -234 -300 -4 -3 -20 -24 -37 -47 -17 -24 -34 -40 -37 -36
-4 3 -7 154 -7 335 l0 328 -75 0 c-51 0 -77 -4 -80 -12z"/>
<path d="M10280 5815 l0 -455 80 0 80 0 -2 453 -3 452 -77 3 -78 3 0 -456z"/>
<path d="M10810 6208 c-30 -34 -66 -76 -80 -93 -14 -17 -53 -63 -86 -101 -108
-121 -154 -178 -154 -188 0 -6 15 -27 33 -47 123 -137 261 -293 310 -351 l58
-68 105 0 c59 0 104 4 102 9 -1 5 -48 58 -103 118 -99 107 -225 243 -235 253
-29 29 -80 92 -80 98 0 8 38 52 118 137 32 33 77 83 101 110 24 28 70 78 103
111 32 34 58 65 58 68 0 3 -44 6 -98 6 l-97 0 -55 -62z"/>
<path d="M12470 5815 l0 -455 75 0 75 0 0 318 c0 174 4 322 8 329 5 8 39 -28
97 -104 50 -63 104 -132 120 -153 17 -21 46 -58 65 -84 19 -25 42 -45 50 -45
13 0 76 79 210 264 75 105 92 125 106 125 12 0 14 -59 14 -325 l0 -325 75 0
75 0 -2 453 -3 452 -67 3 -67 3 -72 -98 c-40 -54 -105 -141 -143 -193 -39 -52
-79 -107 -89 -122 -9 -16 -24 -28 -31 -28 -7 0 -56 54 -107 121 -52 67 -98
126 -104 133 -5 6 -39 50 -75 98 l-65 87 -72 1 -73 0 0 -455z"/>
<path d="M13740 5815 l0 -456 78 3 77 3 3 383 2 382 248 -2 247 -3 5 -380 5
-380 78 -3 77 -3 -2 453 -3 453 -407 3 -408 2 0 -455z"/>
<path d="M15006 6243 c-3 -16 -8 -84 -11 -153 -10 -225 -33 -363 -80 -465 -28
-59 -80 -112 -115 -117 -23 -3 -25 -7 -28 -68 -4 -78 9 -93 72 -83 104 16 170
80 223 213 36 89 83 368 83 486 0 45 3 52 23 58 29 8 271 8 291 0 14 -5 16
-48 16 -380 l0 -374 80 0 80 0 0 455 0 455 -314 0 -314 0 -6 -27z"/>
<path d="M17020 5815 l0 -456 78 3 77 3 0 450 0 450 -77 3 -78 3 0 -456z"/>
<path d="M17519 6173 c-46 -54 -98 -114 -115 -133 -99 -111 -174 -203 -174
-213 1 -7 13 -26 28 -43 103 -118 237 -270 242 -274 3 -3 34 -38 69 -77 l64
-73 103 0 c57 0 104 4 104 9 0 5 -7 15 -16 22 -10 8 -85 88 -168 179 -83 91
-170 185 -193 210 -24 25 -43 51 -43 59 0 7 31 45 68 85 38 39 88 93 113 121
76 85 184 200 192 203 4 2 7 8 7 13 0 5 -44 9 -99 9 l-98 0 -84 -97z"/>
</g>
</svg>
